HIERARCHY
ROOT Hips
{
	OFFSET	0	0	0
	CHANNELS 6  Xposition Yposition Zposition Xrotation Yrotation Zrotation
	JOINT Spine
	{
		OFFSET	0	7.0817	1.42564
		CHANNELS 3  Xrotation Yrotation Zrotation
		JOINT Spine1
		{
			OFFSET	0	12.1578	-2.17103
			CHANNELS 3  Xrotation Yrotation Zrotation
			JOINT Spine2
			{
				OFFSET	0	9.21601	0.987817
				CHANNELS 3  Xrotation Yrotation Zrotation
				JOINT Spine3
				{
					OFFSET	0	11.0288	3.27825
					CHANNELS 3  Xrotation Yrotation Zrotation
					JOINT Spine4
					{
						OFFSET	0	16.3261	-1.67169
						CHANNELS 3  Xrotation Yrotation Zrotation
						JOINT Neck
						{
							OFFSET	0	7.79399	-5.46013
							CHANNELS 3  Xrotation Yrotation Zrotation
							JOINT Head
							{
								OFFSET	0	9.35713	-2.80063
								CHANNELS 3  Xrotation Yrotation Zrotation
								End Site
								{
									OFFSET	0	19.5175	-0.944397
								}
							}
						}
					}
					JOINT LeftShoulder
					{
						OFFSET	-4.68942	19.8432	-9.35713
						CHANNELS 3  Xrotation Yrotation Zrotation
						JOINT LeftArm
						{
							OFFSET	-10.2519	-2.80063	3.59307
							CHANNELS 3  Xrotation Yrotation Zrotation
							JOINT LeftForeArm
							{
								OFFSET	-34.1249	-1.55752	2.4358
								CHANNELS 3  Xrotation Yrotation Zrotation
								JOINT LeftHand
								{
									OFFSET	-28.1809	-1.94746	2.01152
									CHANNELS 3  Xrotation Yrotation Zrotation
									End Site
									{
										OFFSET	-10.2846	-0.710727	0.734058
									}
								}
							}
						}
					}
					JOINT RightShoulder
					{
						OFFSET	4.68942	19.8432	-9.35713
						CHANNELS 3  Xrotation Yrotation Zrotation
						JOINT RightArm
						{
							OFFSET	10.2519	-2.80063	3.59307
							CHANNELS 3  Xrotation Yrotation Zrotation
							JOINT RightForeArm
							{
								OFFSET	34.1249	-1.55752	2.4358
								CHANNELS 3  Xrotation Yrotation Zrotation
								JOINT RightHand
								{
									OFFSET	28.1809	-1.94746	2.01152
									CHANNELS 3  Xrotation Yrotation Zrotation
									End Site
									{
										OFFSET	10.2846	-0.710727	0.734058
									}
								}
							}
						}
					}
				}
			}
		}
	}
	JOINT LeftUpLeg
	{
		OFFSET	-9.64475	-3.54085	-0.712821
		CHANNELS 3  Xrotation Yrotation Zrotation
		JOINT LeftLeg
		{
			OFFSET	-2.14734	-42.0762	-0.657743
			CHANNELS 3  Xrotation Yrotation Zrotation
			JOINT LeftFoot
			{
				OFFSET	-2.09898	-38.6909	3.32741
				CHANNELS 3  Xrotation Yrotation Zrotation
				JOINT LeftToeBase
				{
					OFFSET	0	-4.81787	-12.7963
					CHANNELS 3  Xrotation Yrotation Zrotation
					End Site
					{
						OFFSET	0	-1.92715	-7.70859
					}
				}
			}
		}
	}
	JOINT RightUpLeg
	{
		OFFSET	9.64475	-3.54085	-0.712821
		CHANNELS 3  Xrotation Yrotation Zrotation
		JOINT RightLeg
		{
			OFFSET	2.14734	-42.0762	-0.657743
			CHANNELS 3  Xrotation Yrotation Zrotation
			JOINT RightFoot
			{
				OFFSET	2.09898	-38.6909	3.32741
				CHANNELS 3  Xrotation Yrotation Zrotation
				JOINT RightToeBase
				{
					OFFSET	0	-4.81787	-12.7963
					CHANNELS 3  Xrotation Yrotation Zrotation
					End Site
					{
						OFFSET	0	-1.92715	-7.70859
					}
				}
			}
		}
	}
}
MOTION
Frames: 19
Frame Time: 0.020408
 65.9796 91.5918 -283.768 173.964 -178.753 169.66 0.000318021 -0.011372 1.60188 1.02554 -0.0227282 2.6698 2.14495 -0.0681845 2.6698 4.03519 -0.011372 1.60188 172.521 -179.93 -179.471 157.65 -179.768 178.291 173.296 179.86 179.583 172.826 -174.056 165.286 43.5788 -82.8641 101.673 84.5538 -37.4361 77.6734 -0 58.2538 34.2349 176.097 -168.632 -173.362 41.2371 -86.4118 -29.2343 174.527 174.308 -178.059 -0 -40.5691 -5.32461 176.516 172.541 -163.661 12.044 -5.0132 -0.230616 30.9662 -0.111408 11.505 0.00615056 0 0 169.656 -103.272 159.838 178.091 -177.022 -179.99 35.4756 -0.0392473 0.535179 0.233953 0 0
 65.3989 91.3439 -283.715 173.001 -178.124 168.85 0.00101357 -0.0341513 1.69997 1.421 -0.0682492 2.83329 2.71371 -0.204747 2.8333 4.80398 -0.0341513 1.69997 171.471 -179.916 -179.44 154.271 -179.732 176.767 172.285 179.765 179.214 174.568 -174.424 168.958 44.8842 -86.0604 102.483 84.7206 -35.042 77.7831 -0 57.3352 35.9261 175.353 -164.587 -172.549 12.5439 -86.4239 -57.6794 174.495 174.308 -177.845 -0 -42.2971 -5.11807 176.771 171.906 -163.598 12.0857 -4.95964 0.165013 27.4831 0.0859059 11.4307 0.0086823 0 0 175 -104.003 165.557 0.199972 -2.37465 -0.151899 38.3621 -0.105594 0.555905 0.298435 0 0
 65.8682 91.3043 -283.845 172.473 -177.642 168.654 0.000386083 -0.0124198 1.78053 1.79317 -0.0248182 2.96755 3.21243 -0.0744546 2.96755 5.44504 -0.0124198 1.78053 170.681 -179.904 -179.414 151.651 -179.836 174.427 171.502 179.493 178.667 175.914 -176.022 171.819 28.9999 -87.9904 87.5657 84.7048 -31.7716 76.9023 -0 56.8364 39.3791 174.648 -163.915 -171.495 7.12221 -85.5891 -63.8401 173.968 174.332 -177.817 -0 -44.305 -4.38391 178.345 170.883 -161.445 11.9176 -4.36582 0.641879 19.8933 -0.0790545 11.4893 0.0167734 0 0 177.532 -104.203 166.104 3.18081 -2.03283 -0.248872 39.2578 0.0964296 0.304709 0.380847 0 0
 64.8013 91.3991 -283.348 170.224 -178.408 167.693 180 180 -178.121 2.31817 0.000794423 3.13222 3.76446 0.00238327 3.13222 5.88461 0.000397592 1.87933 170.649 -179.898 -179.382 151.046 -179.755 171.936 171.327 179.442 178.045 177.273 -177.342 174.61 27.1351 -88.8454 87.2435 84.8629 -28.3539 76.0827 -0 56.8167 43.5052 174.331 -163.968 -170.974 179.371 -95.1316 107.659 172.877 173.636 -177.546 -0 -45.7694 -3.12403 0.328829 10.6043 20.4878 11.5372 -2.96722 0.250525 16.389 -0.0214028 11.4613 0.036595 0 0 176.012 -103.289 164.405 5.813 -3.06731 -0.416463 39.6594 -0.0392712 0.329777 0.466897 0 0
 64.2588 90.7958 -283.324 169.077 -177.496 167.758 180 179.998 -178.046 2.79523 0.00467077 3.25732 4.25069 0.0140123 3.25732 6.23156 0.00233781 1.95439 170.74 -179.895 -179.357 150.84 -179.586 169.633 171.273 179.547 177.445 178.6 -178.305 177.26 14.8364 -89.3926 76.2839 85.6419 -24.8421 75.7246 -0 57.2104 48.2006 173.821 -163.998 -170.139 176.802 -95.9394 104.512 171.753 173.093 -177.341 -0 -47.0766 -1.78526 5.6077 13.5699 23.1391 11.4081 -1.7103 0.235393 12.5973 -0.0448593 11.4135 0.0494626 0 0 164.437 -102.677 155.111 8.81077 -4.65489 -1.19115 35.7684 0.00831185 0.337143 0.531609 0 0
 63.3574 91.071 -282.426 168.157 -176.286 167.924 180 179.997 -178.02 3.218 0.00543725 3.2994 4.65399 0.0163118 3.2994 6.45529 0.00272151 1.97964 171.017 -179.897 -179.348 151.203 -179.254 167.827 171.393 179.828 176.943 179.837 -178.501 179.681 108.134 -89.4654 171.482 86.6949 -21.2296 76.5434 -0 57.5815 52.6251 173.572 -164.584 -169.634 48.1889 81.666 -157.395 78.3835 82.8314 -80.5617 -0 21.9733 -28.895 6.59114 15.326 24.653 11.5984 -0.223877 -0.105099 8.33896 -0.0785469 11.0622 0.055617 0 0 156.042 -102.583 146.206 11.4877 -5.96491 -0.991543 31.4669 0.0142967 0.232062 0.586862 0 0
 64.5861 91.4099 -282.751 167.207 -174.951 168.109 180 179.999 -177.843 3.68808 0.00285814 3.59544 5.14101 0.00857442 3.59544 6.81865 0.00143087 2.15727 171.057 -179.888 -179.29 150.868 -179.146 166.801 171.295 -179.951 176.648 0.753415 -2.11387 1.47972 137.786 -89.5377 -156.828 87.5247 -18.1653 76.5516 -0 57.4906 55.8785 169.415 -159.119 -164.184 164.281 101.342 84.8489 124.517 80.0824 -122.866 -0 22.8667 -28.6429 6.79055 17.0485 22.5528 11.4268 1.2341 0.0636951 5.30564 -0.0807505 10.4792 0.0551438 0 0 156.211 -104.64 146.49 9.99946 -5.49209 -1.07001 29.6988 0.017648 -0.226831 0.644846 0 0
 66.3734 89.6857 -284.058 166.466 -174.182 169.053 180 179.991 -177.769 4.14458 0.0183223 3.71813 5.55942 0.0549668 3.71813 7.01513 0.00917349 2.23088 171.462 -179.89 -179.265 151.555 -178.831 165.699 171.513 -179.803 176.345 1.45366 -4.53647 2.91076 111.647 -89.2269 178.435 88.8078 -14.9535 78.6089 -0 57.7215 59.5816 168.977 -157.888 -163.888 143.971 104.857 103.562 139.545 76.2432 -139.004 -0 22.8569 -28.9104 65.2653 -33.2341 55.2034 141.657 160.575 172.73 175.803 179.172 179.127 168.731 180 -180 151.426 -107.168 142.045 9.02805 -5.31443 -1.0893 27.2816 0.0312185 -0.620387 0.698142 0 0
 65.1681 88.6981 -285.179 165.712 -174.348 167.189 0.000531394 -0.0127838 2.38029 4.5751 -0.0255283 3.96715 5.93021 -0.076585 3.96716 7.10415 -0.0127838 2.38029 172.064 -179.89 -179.214 152.816 -178.385 165.138 171.908 -179.649 176.177 1.61364 -9.74808 3.34191 119.783 -88.0834 -173.642 89.7598 -12.0372 80.3748 -0 57.8553 62.5853 169.078 -159.03 -163.672 130.377 106.685 115.336 146.724 72.8367 -146.363 -0 22.0895 -29.3772 64.6754 -35.8185 50.1089 140.639 160.4 179.206 175.566 179.6 178.967 168.743 180 -180 57.2713 -81.9037 50.0159 124.25 -179.74 179.433 6.67921 0.103776 -0.0751118 0.142232 0 0
 64.2789 86.9966 -285.275 164.796 -172.819 164.567 179.999 179.984 -177.027 5.10242 0.0313081 4.95575 6.34375 0.0939241 4.95576 7.14288 0.0156916 2.97345 172.975 -179.879 -179.016 154.848 -177.805 165.339 172.535 -179.487 176.198 1.46799 -17.2124 3.13972 120.045 -87.206 -174.386 90.4798 -9.36833 82.0339 -0 57.8687 65.0709 169.506 -160.369 -163.943 122.946 106.841 120.578 150.884 69.6649 -150.923 -0 20.6849 -29.6836 65.0745 -40.8033 46.8214 142.136 161.643 179.61 10.6569 -0.546908 -0.887094 168.8 180 -180 56.5503 -84.1633 47.847 122.454 -178.909 179.875 3.74805 -0.338385 -0.0830479 0.144701 0 0
 64.6753 79.6692 -288.989 9.44288 -72.5277 16.4746 0.000354845 0.0168975 -1.20303 178.921 179.966 177.995 178.654 179.899 177.995 178.47 179.983 178.797 1.53007 -0.0107078 -0.400866 5.4004 -0.163721 0.133581 1.62011 -0.422692 0.0140049 0.490513 0.385827 0.942513 100.261 -86.1533 165.978 91.4936 -6.58907 83.6124 -0 57.802 67.4012 179.767 -179.847 -179.551 115.647 106.297 125.906 155.248 63.7402 -155.525 -0 18.9502 -29.7303 13.3011 -3.83736 12.8735 145.296 -179.414 -179.217 17.4277 -3.09107 -12.2714 0.00191512 0 0 156.271 -162.914 167.867 176.77 179.157 179.909 87.4733 5.76541 -0.18808 0.0389338 0 0
 61.5956 83.4215 -282.182 176.849 -176.698 174.897 0.000236631 -0.0308731 0.439143 0.109834 -0.061743 0.731905 0.0798328 -0.185229 0.731908 179.978 -179.969 -179.561 0.257401 0.000657614 0.146379 0.631353 -0.292325 -0.236383 0.189475 -0.243217 -0.088156 179.643 -178.8 179.305 115.455 -86.3912 -178.759 89.9171 -3.96829 84.3802 -0 57.6974 69.47 0.443726 -0.158746 -0.854377 101.669 105.318 138.208 157.02 59.4099 -158.526 -0 18.0187 -30.9228 175.429 170.014 -174.382 173.153 179.705 -178.766 41.2212 -13.5454 9.00052 0.00953868 0 0 11.7769 -11.6609 -2.95489 163.861 179.843 179.321 0.475109 10.0317 -1.6714 0.00519356 0 0
 62.8656 89.3307 -282.229 175.252 -176.134 173.478 0.000342308 -0.0334364 0.586549 0.143618 -0.0668666 0.977582 0.0996929 -0.2006 0.977587 179.957 -179.967 -179.413 0.370936 0.00126578 0.195512 0.924405 -0.297256 0.424141 0.277278 -0.958458 0.0541136 0.148648 -2.13136 0.291944 145.478 -87.8189 -150.05 89.9867 -3.00722 77.7501 -0 57.352 69.3136 178.244 178.885 -176.578 80.4282 107.745 151.846 156.402 59.1612 -158.798 -0 16.1938 -31.522 178.043 170.46 -173.15 0.50525 -0.280501 -0.652483 43.203 -0.00845964 9.0357 0.0204543 0 0 11.3927 -11.5242 -6.72792 165.576 179.801 178.92 8.83197 0.128826 -1.55008 0.0216128 0 0
 66.4758 89.7608 -282.619 173.621 -173.889 175.804 180 179.965 -179.646 0.657746 0.0696986 0.590835 0.548343 0.209096 0.590839 0.114864 0.0348505 0.354501 0.975244 0.00201125 0.11815 2.16638 -1.1942 0.241256 0.648295 -2.25849 -0.0901843 1.19412 -3.84223 2.37822 152.255 -88.5919 -145.008 90.8857 -3.10348 73.5043 -0 57.4315 68.9235 178.733 177.946 -177.512 88.0298 112.565 144.846 155.08 61.1498 -155.86 -0 14.5963 -32.2702 177.819 171.035 -176.012 9.01868 -1.27337 -0.899016 38.9897 -0.171898 9.16591 0.019799 0 0 15.1019 -12.2986 -7.8335 166.746 179.335 -179.898 14.043 -0.195717 -1.5852 0.0384133 0 0
 67.0563 89.3648 -282.401 171.385 -170.801 176.218 180 179.979 -179.678 1.35081 0.0416949 0.536338 0.927417 0.125085 0.536339 179.633 179.979 -179.678 3.40868 0.00637787 0.107078 8.49576 -3.10525 0.0928843 2.54488 -4.89703 -0.265038 1.32141 -9.75458 2.73616 108.31 -88.1102 168.441 91.1993 -2.34229 72.3352 -0 57.8395 69.8084 179.604 177.098 -179.217 90.9118 114.387 141.415 152.628 63.9169 -153.355 -0 12.8523 -33.5418 144.034 -69.2995 151.044 156.995 -179.918 177.864 155.38 168.089 -179.978 179.872 180 -180 18.8411 -12.2137 -12.7394 165.73 178.107 -179.605 19.1967 -0.10863 -1.95283 0.0610632 0 0
 66.1435 88.3314 -285.295 170.609 -166.6 176.044 0.000281106 -0.0524113 0.307301 1.91046 -0.10482 0.512169 1.19775 -0.31446 0.512175 179.13 -179.948 -179.693 5.63857 0.0100644 0.101938 14.4221 -5.0411 0.44766 4.3262 -7.70761 -0.249275 1.35024 -15.1081 2.86666 88.9105 -88.8415 149.08 91.5906 -1.45565 72.4807 -0 58.1942 70.5045 179.966 179.952 -179.935 104.011 118.751 129.188 151.595 64.8486 -151.748 -0 11.2792 -33.1309 84.0284 -80.103 89.9918 155.072 -176.224 177.865 9.61445 0.409697 -0.194338 179.96 180 -180 24.5049 -0.0313564 -7.82365 0.181854 0.0313921 4.17754 100.246 -174.723 -172.608 179.979 180 -180
 65.6265 88.3765 -284.033 167.516 -159.342 174.352 0.000116284 -0.026554 0.250905 2.3832 -0.0531071 0.418175 1.48698 -0.159321 0.418177 178.898 -179.973 -179.749 7.07323 0.0102986 0.0829986 18.1788 -6.39342 1.03534 5.46313 -9.92936 -0.111107 1.52711 -19.5228 3.28726 55.9381 -88.4808 115.885 91.6684 -0.776651 72.6555 -0 58.6019 71.2016 0.552138 0.686056 -1.07122 112.936 123.661 125.232 150.849 65.1632 -151.801 -0 9.91159 -32.7173 41.263 -74.602 43.3138 153.564 -171.515 177.891 37.1872 0.131646 -0.108095 0.051518 0 0 26.2361 0.132864 -13.1233 3.69795 0.27504 0.392328 147.56 -179.643 -172.434 0.0121176 0 0
 63.5243 87.6041 -281.726 161.852 -151.003 172.379 180 179.959 -179.876 2.86099 0.0815388 0.205939 1.67959 0.244616 0.205941 178.365 179.959 -179.876 9.21949 0.00659899 0.0406558 24.0464 -8.77393 1.15668 7.24108 -12.0016 -0.142785 1.62867 -25.3256 3.53702 66.6672 -86.8756 125.657 92.1317 0.126677 74.0032 -0 58.9108 71.7635 0.0902348 7.15834 -0.183873 113.774 125.944 130.485 152.465 62.4158 -154.234 -0 8.2029 -32.7623 34.4145 -68.3056 29.5103 152.161 -167.735 179.552 39.5978 0.22321 -0.0263038 0.135266 0 0 20.5137 2.38101 -18.4389 8.45332 1.06643 0.305732 17.0832 -0.638517 7.80098 0.0603641 0 0
 63.0601 87.3162 -284.08 161.352 -144.802 171.199 5.18497e-05 0.0417437 -0.0711669 3.27938 0.0834873 -0.118612 1.87132 0.250462 -0.118613 177.961 179.958 179.929 10.9519 -0.00450687 -0.0232902 28.9815 -12.602 1.30462 8.74478 -15.0693 -0.312847 1.84885 -28.1523 4.01795 84.8058 -87.2635 145.599 92.4218 -0.0236432 73.3733 -0 59.3934 71.2492 179.769 166.829 -179.513 107.727 125.233 138.454 153.434 60.2717 -155.164 -0 6.04092 -32.7662 29.7196 -59.7296 21.117 147.693 -163.756 -178.232 34.6714 -0.761613 1.32045 0.203457 0 0 12.3101 7.12947 -17.776 7.17062 3.15904 0.68585 36.6715 -0.115416 7.96767 0.100435 0 0
